{
	"asset":{
		"generator":"Khronos glTF Blender I/O v5.1.20",
		"version":"2.0"
	},
	"scene":0,
	"scenes":[
		{
			"name":"Scene",
			"nodes":[
				34
			]
		}
	],
	"nodes":[
		{
			"name":"toe.R",
			"rotation":[
				0.5713211894035339,
				1.6899408955550754e-11,
				-1.3537423626530654e-07,
				0.8207266330718994
			],
			"scale":[
				1,
				1,
				0.9999999403953552
			],
			"translation":[
				-7.335742679970281e-09,
				0.24364596605300903,
				3.4275714710929606e-08
			]
		},
		{
			"children":[
				0
			],
			"name":"foot.R",
			"rotation":[
				0.4720487594604492,
				-0.010330060496926308,
				-0.017391234636306763,
				0.8813403248786926
			],
			"translation":[
				-5.587935447692871e-09,
				0.358574241399765,
				-3.6612618714571e-08
			]
		},
		{
			"children":[
				1
			],
			"name":"shin.R",
			"rotation":[
				-0.33360981941223145,
				0.00758666917681694,
				0.018751181662082672,
				0.9424942135810852
			],
			"scale":[
				1,
				0.9999998807907104,
				0.9999999403953552
			],
			"translation":[
				1.9946226004208256e-08,
				0.5854102969169617,
				3.265552805942207e-08
			]
		},
		{
			"children":[
				2
			],
			"name":"thigh.R",
			"rotation":[
				-0.6491333842277527,
				-2.0656540922203703e-09,
				1.523448673879102e-07,
				0.7606746554374695
			],
			"scale":[
				1,
				0.9999999403953552,
				1
			],
			"translation":[
				0.18334530293941498,
				-0.0096345916390419,
				0.018598182126879692
			]
		},
		{
			"name":"jaw",
			"rotation":[
				0.08330152183771133,
				3.5651045002694105e-15,
				-1.9860628697188076e-08,
				0.9965243935585022
			],
			"scale":[
				1,
				0.9999999403953552,
				1
			],
			"translation":[
				-2.7823489290312864e-08,
				0.48402971029281616,
				-0.1167001724243164
			]
		},
		{
			"children":[
				4
			],
			"name":"spine.012",
			"rotation":[
				-0.2222547084093094,
				-1.1387035757403404e-14,
				5.298965533029332e-08,
				0.9749886393547058
			],
			"scale":[
				1,
				0.9999999403953552,
				1
			],
			"translation":[
				-1.7180116853340692e-14,
				0.19703048467636108,
				-7.450580596923828e-08
			]
		},
		{
			"children":[
				5
			],
			"name":"spine.011",
			"rotation":[
				-0.028873197734355927,
				1.464717155072806e-14,
				6.883905889765174e-09,
				0.9995831251144409
			],
			"scale":[
				1,
				0.9999999403953552,
				0.9999999403953552
			],
			"translation":[
				2.5102451584393948e-14,
				0.23053760826587677,
				8.940696716308594e-08
			]
		},
		{
			"children":[
				6
			],
			"name":"spine.010",
			"rotation":[
				-0.148456871509552,
				-7.634111441959246e-15,
				3.53948799158843e-08,
				0.9889189004898071
			],
			"scale":[
				1,
				0.9999998807907104,
				0.9999999403953552
			],
			"translation":[
				-1.2201042043011312e-14,
				0.35853052139282227,
				-4.470348358154297e-08
			]
		},
		{
			"name":"front_toe.R",
			"rotation":[
				0.5420181155204773,
				-8.455149795095259e-15,
				-2.584543778993975e-07,
				0.8403668403625488
			],
			"scale":[
				1,
				1,
				0.9999999403953552
			],
			"translation":[
				-8.170265353157902e-09,
				0.17621970176696777,
				-2.1827723628575768e-08
			]
		},
		{
			"children":[
				8
			],
			"name":"front_foot.R",
			"rotation":[
				0.2630102336406708,
				3.0815614504575706e-09,
				-1.2120516146296723e-07,
				0.9647930264472961
			],
			"scale":[
				1,
				1,
				0.9999998807907104
			],
			"translation":[
				-1.157160589571049e-09,
				0.2378857135772705,
				-6.26708640538709e-09
			]
		},
		{
			"children":[
				9
			],
			"name":"front_shin.R",
			"rotation":[
				0.23493592441082,
				0.009005081839859486,
				0.03722820058465004,
				0.9712559580802917
			],
			"scale":[
				0.9999999403953552,
				1,
				0.9999999403953552
			],
			"translation":[
				-1.862645149230957e-09,
				0.3276214599609375,
				2.7746324349209317e-08
			]
		},
		{
			"children":[
				10
			],
			"name":"front_thigh.R",
			"rotation":[
				-0.410836786031723,
				-0.01574748568236828,
				-0.03491487726569176,
				0.910904049873352
			],
			"translation":[
				-0.038374029099941254,
				0.4363868832588196,
				3.424385795369744e-05
			]
		},
		{
			"children":[
				11
			],
			"name":"shoulder.R",
			"rotation":[
				-0.6877892017364502,
				-1.5929474406206623e-09,
				1.6230052324317512e-07,
				0.725910484790802
			],
			"scale":[
				1,
				1,
				0.9999999403953552
			],
			"translation":[
				0.22171935439109802,
				0.3392370343208313,
				-0.013625056482851505
			]
		},
		{
			"name":"front_toe.L",
			"rotation":[
				0.5420181155204773,
				8.455149795095259e-15,
				2.5845440632110694e-07,
				0.8403668403625488
			],
			"scale":[
				1,
				1,
				0.9999999403953552
			],
			"translation":[
				8.170283116726296e-09,
				0.17621970176696777,
				-2.9133737200481846e-08
			]
		},
		{
			"children":[
				13
			],
			"name":"front_foot.L",
			"rotation":[
				0.2630102336406708,
				-1.8637511534080886e-09,
				1.200914141463727e-07,
				0.9647930264472961
			],
			"scale":[
				1,
				1,
				0.9999998807907104
			],
			"translation":[
				1.6635928190567029e-09,
				0.2378857284784317,
				-1.329497933966195e-08
			]
		},
		{
			"children":[
				14
			],
			"name":"front_shin.L",
			"rotation":[
				0.23493592441082,
				-0.009005081839859486,
				-0.03722820058465004,
				0.9712559580802917
			],
			"scale":[
				0.9999999403953552,
				1,
				0.9999999403953552
			],
			"translation":[
				2.421438694000244e-08,
				0.3276214599609375,
				-4.228411398798926e-09
			]
		},
		{
			"children":[
				15
			],
			"name":"front_thigh.L",
			"rotation":[
				-0.410836786031723,
				0.01574748381972313,
				0.03491488844156265,
				0.910904049873352
			],
			"translation":[
				0.03837403655052185,
				0.4363867938518524,
				3.41991544701159e-05
			]
		},
		{
			"children":[
				16
			],
			"name":"shoulder.L",
			"rotation":[
				-0.6877892017364502,
				1.7147765163372242e-07,
				-1.6811986247589061e-09,
				0.725910484790802
			],
			"scale":[
				1,
				1,
				0.9999999403953552
			],
			"translation":[
				-0.22171935439109802,
				0.3392370045185089,
				-0.013624942861497402
			]
		},
		{
			"children":[
				7,
				12,
				17
			],
			"name":"spine.009",
			"rotation":[
				0.07992622256278992,
				-1.063665858679324e-14,
				-1.9055898192732457e-08,
				0.9968007802963257
			],
			"scale":[
				1,
				1.0000001192092896,
				1.0000001192092896
			],
			"translation":[
				-1.2839420282170777e-14,
				0.3498135507106781,
				-5.48316165804863e-08
			]
		},
		{
			"children":[
				18
			],
			"name":"spine.008",
			"rotation":[
				0.05871972441673279,
				2.224284167292559e-16,
				-1.3999873260672757e-08,
				0.9982745051383972
			],
			"translation":[
				3.04315221025947e-14,
				0.32596588134765625,
				1.2665987014770508e-07
			]
		},
		{
			"name":"spine",
			"rotation":[
				-0.13422217965126038,
				-9.450706102143158e-07,
				2.2401101773539267e-07,
				0.9909512400627136
			],
			"scale":[
				1,
				1,
				0.9999999403953552
			],
			"translation":[
				-5.575935306062702e-15,
				0.12837663292884827,
				-2.9802322387695312e-08
			]
		},
		{
			"children":[
				20
			],
			"name":"spine.001",
			"rotation":[
				-0.1930108666419983,
				-2.339359355119086e-07,
				9.203483841702109e-08,
				0.9811966419219971
			],
			"translation":[
				-1.004082003631078e-14,
				0.1382341980934143,
				-8.940696716308594e-08
			]
		},
		{
			"children":[
				21
			],
			"name":"spine.002",
			"rotation":[
				-0.1792801320552826,
				-1.2639278255195847e-14,
				4.2743714345760964e-08,
				0.983798086643219
			],
			"scale":[
				1,
				0.9999999403953552,
				1
			],
			"translation":[
				-6.488106357510279e-15,
				0.18786272406578064,
				-2.9802322387695312e-08
			]
		},
		{
			"children":[
				22
			],
			"name":"spine.003",
			"rotation":[
				-0.07305935770273209,
				-1.781116741047346e-15,
				1.741870825355818e-08,
				0.9973276257514954
			],
			"scale":[
				1,
				0.9999999403953552,
				1
			],
			"translation":[
				2.193360307289373e-14,
				0.22252094745635986,
				8.940696716308594e-08
			]
		},
		{
			"children":[
				23
			],
			"name":"spine.004",
			"rotation":[
				-0.04056752100586891,
				9.305778397210654e-15,
				9.672049827713636e-09,
				0.9991768002510071
			],
			"scale":[
				1,
				0.9999999403953552,
				0.9999999403953552
			],
			"translation":[
				-3.3306690738754696e-15,
				0.24534247815608978,
				0
			]
		},
		{
			"children":[
				24
			],
			"name":"spine.005",
			"rotation":[
				0.2633075714111328,
				-6.444668813909184e-15,
				-6.277742414795284e-08,
				0.9647119045257568
			],
			"scale":[
				1,
				1.0000001192092896,
				1.0000001192092896
			],
			"translation":[
				2.220446049250313e-16,
				0.30700212717056274,
				0
			]
		},
		{
			"children":[
				25
			],
			"name":"spine.006",
			"rotation":[
				-0.8956246972084045,
				-7.933487613869753e-15,
				2.1353355350584025e-07,
				0.44481056928634644
			],
			"scale":[
				1,
				1.0000001192092896,
				1.0000001192092896
			],
			"translation":[
				1.1186680470842703e-09,
				-0.1510063111782074,
				0.0046920329332351685
			]
		},
		{
			"name":"toe.L",
			"rotation":[
				0.5713211894035339,
				-1.011683292695409e-09,
				1.3649226104917034e-07,
				0.8207266330718994
			],
			"scale":[
				1,
				1,
				0.9999999403953552
			],
			"translation":[
				9.253966481992393e-09,
				0.24364596605300903,
				3.362430334163946e-08
			]
		},
		{
			"children":[
				27
			],
			"name":"foot.L",
			"rotation":[
				0.4720487594604492,
				0.010330060496926308,
				0.017391232773661613,
				0.8813403248786926
			],
			"translation":[
				6.51925802230835e-09,
				0.358574241399765,
				-3.693276084959507e-08
			]
		},
		{
			"children":[
				28
			],
			"name":"shin.L",
			"rotation":[
				-0.33360981941223145,
				-0.0075866710394620895,
				-0.018751174211502075,
				0.9424942135810852
			],
			"scale":[
				1,
				0.9999998807907104,
				0.9999999403953552
			],
			"translation":[
				-1.2571655716442365e-08,
				0.5854102969169617,
				3.265552805942207e-08
			]
		},
		{
			"children":[
				29
			],
			"name":"thigh.L",
			"rotation":[
				-0.6491333842277527,
				1.7929329487742507e-07,
				-2.420577738249108e-09,
				0.7606746554374695
			],
			"scale":[
				1,
				0.9999999403953552,
				1
			],
			"translation":[
				-0.18334530293941498,
				-0.0096345916390419,
				0.018598267808556557
			]
		},
		{
			"children":[
				3,
				19,
				26,
				30
			],
			"name":"spine.007",
			"rotation":[
				-0.7437002658843994,
				-7.96929882085351e-08,
				8.865598033480637e-08,
				0.6685132384300232
			],
			"translation":[
				2.3345585926022084e-16,
				1.1182596683502197,
				0.5460341572761536
			]
		},
		{
			"children":[
				31
			],
			"name":"Root"
		},
		{
			"mesh":0,
			"name":"tiger_001",
			"skin":0
		},
		{
			"children":[
				33,
				32
			],
			"name":"tiger"
		}
	],
	"materials":[
		{
			"doubleSided":true,
			"name":"material",
			"pbrMetallicRoughness":{
				"baseColorTexture":{
					"index":0
				},
				"metallicFactor":0,
				"roughnessFactor":0.5527864098548889
			}
		}
	],
	"meshes":[
		{
			"name":"Tiger.002",
			"primitives":[
				{
					"attributes":{
						"POSITION":0,
						"NORMAL":1,
						"TEXCOORD_0":2,
						"JOINTS_0":3,
						"WEIGHTS_0":4
					},
					"indices":5,
					"material":0
				}
			]
		}
	],
	"textures":[
		{
			"sampler":0,
			"source":0
		}
	],
	"images":[
		{
			"mimeType":"image/png",
			"name":"Texture_1.png",
			"uri":"../../blender%20files/textures/Texture_1.png"
		}
	],
	"skins":[
		{
			"inverseBindMatrices":6,
			"joints":[
				32,
				31,
				3,
				2,
				1,
				0,
				19,
				18,
				7,
				6,
				5,
				4,
				12,
				11,
				10,
				9,
				8,
				17,
				16,
				15,
				14,
				13,
				26,
				25,
				24,
				23,
				22,
				21,
				20,
				30,
				29,
				28,
				27
			],
			"name":"tiger"
		}
	],
	"accessors":[
		{
			"bufferView":0,
			"componentType":5126,
			"count":3816,
			"max":[
				0.3643326461315155,
				1.2818189859390259,
				1.4846138954162598
			],
			"min":[
				-0.3643326759338379,
				-0.0008431802853010595,
				-1.4299674034118652
			],
			"type":"VEC3"
		},
		{
			"bufferView":1,
			"componentType":5126,
			"count":3816,
			"type":"VEC3"
		},
		{
			"bufferView":2,
			"componentType":5126,
			"count":3816,
			"type":"VEC2"
		},
		{
			"bufferView":3,
			"componentType":5121,
			"count":3816,
			"type":"VEC4"
		},
		{
			"bufferView":4,
			"componentType":5126,
			"count":3816,
			"type":"VEC4"
		},
		{
			"bufferView":5,
			"componentType":5123,
			"count":7614,
			"type":"SCALAR"
		},
		{
			"bufferView":6,
			"componentType":5126,
			"count":33,
			"type":"MAT4"
		}
	],
	"bufferViews":[
		{
			"buffer":0,
			"byteLength":45792,
			"byteOffset":0,
			"target":34962
		},
		{
			"buffer":0,
			"byteLength":45792,
			"byteOffset":45792,
			"target":34962
		},
		{
			"buffer":0,
			"byteLength":30528,
			"byteOffset":91584,
			"target":34962
		},
		{
			"buffer":0,
			"byteLength":15264,
			"byteOffset":122112,
			"target":34962
		},
		{
			"buffer":0,
			"byteLength":61056,
			"byteOffset":137376,
			"target":34962
		},
		{
			"buffer":0,
			"byteLength":15228,
			"byteOffset":198432,
			"target":34963
		},
		{
			"buffer":0,
			"byteLength":2112,
			"byteOffset":213660
		}
	],
	"samplers":[
		{
			"magFilter":9729,
			"minFilter":9987
		}
	],
	"buffers":[
		{
			"byteLength":215772,
			"uri":"tiger.bin"
		}
	]
}
