{
	"asset":{
		"generator":"Khronos glTF Blender I/O v5.1.20",
		"version":"2.0"
	},
	"scene":0,
	"scenes":[
		{
			"name":"Scene",
			"nodes":[
				0
			]
		}
	],
	"nodes":[
		{
			"mesh":0,
			"name":"tiger_001"
		}
	],
	"materials":[
		{
			"doubleSided":true,
			"name":"material",
			"pbrMetallicRoughness":{
				"metallicFactor":0,
				"roughnessFactor":0.5527864098548889
			}
		}
	],
	"meshes":[
		{
			"name":"Tiger.002",
			"primitives":[
				{
					"attributes":{
						"POSITION":0,
						"NORMAL":1,
						"TEXCOORD_0":2
					},
					"indices":3,
					"material":0
				}
			]
		}
	],
	"accessors":[
		{
			"bufferView":0,
			"componentType":5126,
			"count":3925,
			"max":[
				0.3643326461315155,
				1.2818189859390259,
				1.4846138954162598
			],
			"min":[
				-0.3643326759338379,
				-0.0008431802853010595,
				-1.4299674034118652
			],
			"type":"VEC3"
		},
		{
			"bufferView":1,
			"componentType":5126,
			"count":3925,
			"type":"VEC3"
		},
		{
			"bufferView":2,
			"componentType":5126,
			"count":3925,
			"type":"VEC2"
		},
		{
			"bufferView":3,
			"componentType":5123,
			"count":7614,
			"type":"SCALAR"
		}
	],
	"bufferViews":[
		{
			"buffer":0,
			"byteLength":47100,
			"byteOffset":0,
			"target":34962
		},
		{
			"buffer":0,
			"byteLength":47100,
			"byteOffset":47100,
			"target":34962
		},
		{
			"buffer":0,
			"byteLength":31400,
			"byteOffset":94200,
			"target":34962
		},
		{
			"buffer":0,
			"byteLength":15228,
			"byteOffset":125600,
			"target":34963
		}
	],
	"buffers":[
		{
			"byteLength":140828,
			"uri":"tiger.bin"
		}
	]
}
