{
	"asset":{
		"generator":"Khronos glTF Blender I/O v5.1.20",
		"version":"2.0"
	},
	"scene":0,
	"scenes":[
		{
			"name":"Scene",
			"nodes":[
				0
			]
		}
	],
	"nodes":[
		{
			"mesh":0,
			"name":"Circle.001_Colour Palette_0.001",
			"rotation":[
				-0.70710688829422,
				0,
				0,
				0.7071066498756409
			],
			"scale":[
				42.1212043762207,
				42.1212043762207,
				42.1212043762207
			]
		}
	],
	"materials":[
		{
			"doubleSided":true,
			"name":"Colour_Palette.001",
			"pbrMetallicRoughness":{
				"baseColorTexture":{
					"index":0
				},
				"metallicFactor":0
			}
		}
	],
	"meshes":[
		{
			"name":"Circle.001_Colour Palette_0.001",
			"primitives":[
				{
					"attributes":{
						"POSITION":0,
						"NORMAL":1,
						"TEXCOORD_0":2
					},
					"indices":3,
					"material":0
				}
			]
		}
	],
	"textures":[
		{
			"sampler":0,
			"source":0
		}
	],
	"images":[
		{
			"mimeType":"image/png",
			"name":"Colour_Palette_baseColor",
			"uri":"Colour_Palette_baseColor.png"
		}
	],
	"accessors":[
		{
			"bufferView":0,
			"componentType":5126,
			"count":27461,
			"max":[
				1,
				1,
				0.5197786092758179
			],
			"min":[
				-1,
				-1,
				-0.006685306318104267
			],
			"type":"VEC3"
		},
		{
			"bufferView":1,
			"componentType":5126,
			"count":27461,
			"type":"VEC3"
		},
		{
			"bufferView":2,
			"componentType":5126,
			"count":27461,
			"type":"VEC2"
		},
		{
			"bufferView":3,
			"componentType":5123,
			"count":110082,
			"type":"SCALAR"
		}
	],
	"bufferViews":[
		{
			"buffer":0,
			"byteLength":329532,
			"byteOffset":0,
			"target":34962
		},
		{
			"buffer":0,
			"byteLength":329532,
			"byteOffset":329532,
			"target":34962
		},
		{
			"buffer":0,
			"byteLength":219688,
			"byteOffset":659064,
			"target":34962
		},
		{
			"buffer":0,
			"byteLength":220164,
			"byteOffset":878752,
			"target":34963
		}
	],
	"samplers":[
		{
			"magFilter":9729,
			"minFilter":9987
		}
	],
	"buffers":[
		{
			"byteLength":1098916,
			"uri":"terrain.bin"
		}
	]
}
